<?xml version="1.0" standalone="no"?>
<!DOCTYPE svg PUBLIC "-//W3C//DTD SVG 20010904//EN"
 "http://www.w3.org/TR/2001/REC-SVG-20010904/DTD/svg10.dtd">
<svg version="1.0" xmlns="http://www.w3.org/2000/svg"
 width="1024.000000pt" height="1024.000000pt" viewBox="0 0 1024.000000 1024.000000"
 preserveAspectRatio="xMidYMid meet">
<metadata>
Created by potrace 1.16, written by Peter Selinger 2001-2019
</metadata>
<g transform="translate(0.000000,1024.000000) scale(0.100000,-0.100000)"
fill="#000000" stroke="none">
<path d="M0 5120 l0 -5120 5120 0 5120 0 0 5120 0 5120 -5120 0 -5120 0 0
-5120z m7465 3822 c222 -26 375 -60 535 -119 155 -57 398 -192 384 -214 -3 -5
1 -6 8 -4 34 13 357 -317 344 -352 -3 -7 0 -12 7 -10 7 1 11 -6 11 -15 -1 -10
3 -16 8 -15 15 3 113 -186 158 -305 42 -112 82 -291 101 -453 17 -142 25
-4083 9 -4419 -17 -367 -47 -540 -132 -754 -106 -265 -297 -510 -528 -676 -85
-61 -318 -187 -345 -186 -5 1 40 25 101 54 388 186 665 502 798 911 60 185 82
331 96 640 11 252 12 2734 1 2716 -5 -7 -6 -22 -4 -32 3 -11 0 -19 -6 -19 -7
0 -9 5 -6 10 6 10 -6 14 -39 10 -11 -1 -15 3 -12 9 4 7 1 8 -8 5 -32 -12 -10
-31 27 -25 5 1 6 -3 2 -9 -4 -6 5 -10 20 -10 16 0 24 -4 20 -10 -4 -6 -15 -8
-25 -5 -15 5 -17 2 -13 -15 4 -17 8 -18 14 -8 6 9 9 9 9 1 0 -6 -4 -15 -10
-18 -10 -6 -7 -101 4 -112 3 -4 6 2 6 13 0 16 2 17 10 4 13 -20 13 -33 0 -25
-5 3 -10 1 -10 -6 0 -7 -7 -4 -15 7 -13 17 -14 17 -15 2 0 -10 9 -22 20 -28
11 -6 20 -16 19 -23 0 -8 -2 -9 -5 -1 -3 7 -13 10 -23 7 -10 -3 -22 0 -25 6
-5 7 -1 8 10 4 12 -4 15 -3 10 5 -4 7 -16 12 -27 12 -11 0 -18 -4 -14 -9 3 -6
-1 -14 -10 -18 -8 -5 -16 -21 -17 -35 -2 -21 -5 -24 -15 -16 -10 8 -13 6 -13
-5 0 -9 -7 -20 -16 -25 -14 -8 -14 -10 0 -21 12 -10 17 -9 28 8 7 12 17 21 22
21 4 0 3 -6 -3 -14 -10 -12 -9 -21 5 -43 l16 -28 -20 25 c-11 14 -24 21 -28
17 -4 -4 2 -17 13 -30 17 -18 19 -24 8 -34 -7 -6 -16 -9 -19 -6 -3 4 -6 -1 -6
-10 0 -21 21 -18 38 6 7 9 19 17 25 17 7 0 6 -4 -3 -10 -13 -9 -7 -14 13 -11
12 2 8 -6 -10 -20 -10 -8 -14 -9 -10 -2 4 6 3 14 -2 17 -5 3 -11 -1 -15 -9 -8
-21 -46 -19 -46 3 0 11 -3 13 -8 6 -5 -9 -11 -8 -21 3 -11 12 -11 14 0 12 41
-5 47 8 19 43 -10 13 -16 14 -22 5 -10 -16 -10 11 1 38 5 13 3 28 -7 43 -14
22 -11 36 9 38 5 1 17 2 27 3 15 1 15 3 2 11 -10 6 -11 10 -2 10 6 0 12 4 12
8 0 4 -9 8 -20 8 -13 0 -19 -5 -16 -13 3 -7 2 -12 -2 -12 -21 3 -32 -3 -33
-18 0 -13 -2 -14 -6 -4 -3 8 2 20 13 28 11 8 13 13 5 13 -8 0 -11 6 -7 15 6
17 -19 21 -29 4 -4 -6 -13 -8 -21 -5 -7 3 -16 0 -20 -6 -5 -7 -2 -8 7 -3 12 7
12 5 1 -6 -19 -20 -33 6 -21 38 5 14 9 25 9 27 0 1 -13 2 -29 2 -17 0 -28 -3
-25 -8 3 -4 0 -8 -5 -8 -6 0 -11 5 -11 10 0 6 -4 10 -10 10 -6 0 -6 -9 0 -26
14 -35 13 -36 -10 -29 -16 5 -20 2 -20 -15 0 -12 4 -18 10 -15 6 4 8 11 5 16
-3 5 1 6 9 3 11 -4 19 2 25 19 12 31 41 45 33 15 -4 -15 -7 -17 -13 -6 -7 10
-9 9 -9 -4 0 -10 7 -18 15 -18 8 0 15 -5 15 -10 0 -7 -6 -7 -20 0 -16 8 -20 8
-20 -4 0 -8 3 -16 8 -19 4 -2 1 -2 -7 0 -8 2 -11 -2 -7 -12 3 -8 0 -15 -5 -15
-7 0 -9 10 -6 23 6 20 5 21 -7 4 -20 -26 -46 -12 -40 21 3 15 12 31 20 35 15
8 20 28 7 26 -19 -3 -33 2 -33 11 0 5 7 6 17 3 12 -5 14 -3 8 7 -6 10 -4 12 8
7 9 -3 27 -2 39 3 18 7 19 9 6 9 -16 1 -27 31 -12 31 9 0 34 -28 34 -38 0 -5
7 -9 14 -9 11 0 12 5 5 18 -5 11 -5 20 0 23 5 4 11 0 14 -6 3 -7 4 -3 4 9 -1
12 -4 20 -8 17 -4 -2 -10 3 -13 12 -9 23 -7 34 4 34 6 0 10 -7 10 -15 0 -8 5
-15 11 -15 5 0 8 4 5 9 -3 5 1 14 9 21 17 14 14 48 -4 60 -9 5 -10 9 -2 14 6
4 14 1 17 -7 5 -14 25 -16 64 -6 8 2 14 -2 12 -9 -1 -7 4 -20 13 -28 9 -9 15
-11 15 -4 0 6 4 9 10 5 5 -3 7 -13 4 -23 -5 -14 -4 -14 4 -2 6 8 8 18 5 24 -3
5 -2 7 3 3 11 -7 11 -98 -1 -116 -5 -9 -3 -12 6 -9 8 3 13 17 12 32 -1 18 2
26 10 23 7 -2 11 -13 9 -24 -2 -11 3 -20 11 -20 9 0 13 9 11 25 -3 26 -22 45
-36 36 -4 -3 -5 2 -2 10 3 9 10 16 16 16 5 0 7 -4 4 -9 -3 -5 1 -11 9 -15 13
-5 15 7 6 42 -1 1 -11 -2 -22 -9 -15 -7 -19 -8 -15 0 4 6 2 19 -4 30 -6 13 -6
22 0 26 5 3 7 12 4 20 -4 8 -11 12 -16 9 -6 -4 -5 -10 3 -15 11 -6 10 -9 -3
-14 -9 -4 -14 -13 -12 -20 4 -9 -1 -12 -13 -10 -10 2 -20 4 -22 4 -2 1 3 9 12
19 9 10 14 27 11 38 -4 16 -1 20 13 19 10 0 24 -4 31 -9 6 -4 15 -5 20 -3 4 3
16 1 27 -4 19 -7 19 -8 -2 -8 -12 -1 -25 -6 -29 -12 -7 -13 35 -3 50 12 15 14
-2 21 -69 28 -5 1 -1 8 9 16 21 16 32 55 17 55 -6 0 -8 -8 -6 -18 2 -10 -5
-24 -16 -30 -13 -8 -19 -9 -19 -1 0 5 -5 7 -11 3 -8 -4 -7 -9 2 -15 8 -5 9 -9
3 -9 -18 0 -24 12 -13 31 7 15 6 17 -6 13 -9 -4 -15 0 -15 9 0 10 8 15 20 14
11 -1 20 -7 20 -14 0 -7 4 -13 8 -13 5 0 9 7 9 15 0 14 -10 19 -29 16 -5 0 -9
4 -9 9 -1 6 -2 15 -3 21 0 6 -9 16 -19 24 -10 7 -17 17 -16 21 5 30 -2 37 -17
16 -9 -13 -13 -26 -10 -29 3 -4 6 -1 6 5 0 7 8 5 18 -5 12 -13 17 -32 16 -66
-1 -26 2 -50 8 -53 5 -3 2 -15 -9 -26 -9 -11 -13 -18 -8 -16 10 3 15 -4 15
-22 0 -6 -8 -5 -20 2 -11 7 -18 18 -16 24 4 11 -35 51 -44 45 -3 -2 -13 -7
-23 -13 -10 -5 -17 -17 -15 -26 1 -9 -4 -28 -11 -41 -10 -18 -10 -25 0 -35 9
-8 10 -8 5 1 -3 6 -2 14 4 18 6 4 10 -4 10 -19 0 -22 -4 -25 -29 -21 -24 3
-28 0 -24 -16 3 -11 0 -19 -6 -19 -7 0 -9 5 -6 10 4 6 3 10 -2 9 -20 -3 -22 2
-6 20 9 11 20 18 23 16 4 -2 7 2 7 9 0 11 -4 12 -19 3 -10 -7 -18 -15 -18 -20
0 -4 -5 -5 -12 -1 -7 4 -8 3 -4 -4 4 -7 1 -12 -9 -12 -9 0 -13 5 -10 10 3 6 1
10 -4 10 -20 0 -11 -20 12 -29 13 -5 29 -16 37 -25 9 -12 15 -13 20 -6 5 8 9
7 13 -4 7 -17 -4 -20 -40 -10 -13 4 -20 10 -17 15 3 5 -1 9 -9 9 -8 0 -20 7
-27 15 -7 8 -16 15 -21 15 -5 0 -9 -7 -9 -15 0 -8 -5 -15 -11 -15 -5 0 -7 6
-3 13 6 9 5 9 -8 0 -8 -7 -19 -9 -23 -5 -5 4 -5 1 -1 -6 5 -8 1 -19 -10 -27
-18 -13 -18 -14 4 -8 12 3 22 13 23 22 0 12 2 11 8 -4 8 -19 9 -18 21 7 7 15
17 25 22 22 5 -3 3 -13 -4 -22 -7 -9 -8 -13 -2 -9 7 4 11 -5 11 -23 0 -17 -4
-30 -9 -30 -4 0 -8 5 -8 11 0 6 -7 9 -15 5 -8 -3 -15 0 -15 7 -1 7 -7 1 -15
-13 -17 -29 -19 -44 -6 -35 5 3 12 1 16 -5 5 -9 -7 -14 -27 -11 -4 0 -4 -11
-2 -26 4 -23 3 -25 -11 -13 -19 16 -20 3 0 -16 10 -10 15 -11 15 -3 0 8 4 8
15 -1 18 -15 16 -19 -14 -25 -14 -3 -21 1 -21 12 0 15 -2 14 -13 -1 -12 -17
-14 -17 -20 -2 -4 9 -12 16 -19 16 -10 0 -10 -2 1 -9 9 -6 10 -11 2 -15 -6 -4
-11 -15 -11 -24 0 -13 2 -13 15 4 14 18 14 17 13 -11 -2 -35 -17 -48 -35 -33
-9 7 -13 7 -13 0 0 -5 7 -12 15 -16 8 -3 15 -10 15 -16 0 -6 -4 -8 -10 -5 -18
11 -11 -3 15 -31 14 -15 25 -32 24 -38 0 -6 -3 -5 -6 3 -5 11 -7 11 -15 0 -8
-12 -9 -12 -6 0 3 8 -3 22 -11 31 -14 14 -17 14 -29 0 -12 -13 -13 -13 -8 2 3
12 1 15 -10 11 -7 -3 -14 -11 -14 -19 0 -7 -12 -20 -27 -29 -27 -15 -27 -16
-3 -9 20 5 22 4 13 -6 -6 -7 -9 -19 -6 -26 7 -18 73 31 74 55 0 12 2 11 8 -4
5 -11 6 -24 3 -30 -3 -5 1 -4 10 2 8 7 18 10 21 6 4 -3 -1 -12 -11 -20 -9 -8
-11 -11 -3 -7 10 5 11 1 6 -15 -4 -13 -2 -21 5 -21 6 0 9 4 5 9 -3 5 -1 12 5
16 5 3 10 2 10 -2 0 -5 12 -9 27 -8 20 0 28 5 28 17 0 21 18 25 23 6 2 -8 0
-8 -7 2 -8 12 -10 9 -8 -15 2 -30 -20 -43 -35 -20 -5 6 -11 6 -19 -2 -9 -9 -6
-13 15 -19 14 -3 26 -11 26 -17 0 -30 32 26 34 59 1 22 7 48 14 59 11 18 12
17 6 -7 -4 -20 -2 -28 7 -28 11 0 11 -2 -1 -10 -12 -8 -12 -10 3 -16 21 -8 23
-34 2 -34 -8 0 -15 -4 -15 -10 0 -5 8 -7 18 -4 9 3 6 -2 -8 -10 -14 -8 -19
-15 -12 -16 8 0 6 -7 -7 -22 -11 -11 -18 -25 -15 -29 2 -4 0 -10 -5 -14 -6 -3
-7 -13 -4 -23 3 -9 3 -14 -2 -10 -4 4 -9 21 -11 38 -5 43 -15 56 -26 36 -5 -9
-6 -21 -3 -26 3 -6 1 -10 -5 -10 -6 0 -8 -5 -5 -10 4 -6 10 -8 14 -6 4 3 8 -1
8 -8 0 -8 -6 -12 -14 -9 -7 3 -13 1 -13 -5 0 -6 5 -12 12 -14 7 -3 5 -7 -6
-11 -10 -4 -15 -3 -11 3 3 6 1 10 -5 10 -6 0 -8 5 -4 11 4 8 0 8 -15 0 -16 -9
-20 -18 -15 -36 4 -16 2 -25 -6 -25 -6 0 -8 5 -5 10 3 6 2 10 -3 10 -6 0 -8 9
-5 20 3 11 9 20 14 20 5 0 9 5 9 11 0 6 -6 9 -13 6 -10 -4 -13 2 -9 19 5 26
33 30 38 6 1 -7 0 -8 -3 -2 -2 5 -9 10 -14 10 -16 0 7 -33 25 -36 12 -2 15 4
12 22 -3 13 0 26 5 30 6 4 6 11 -2 20 -6 8 -8 14 -5 14 4 0 2 9 -4 20 -6 11
-15 20 -21 20 -6 0 -3 -7 5 -16 9 -8 14 -20 11 -25 -8 -13 -45 -11 -45 2 0 5
4 7 10 4 6 -4 7 1 3 11 -5 14 -7 14 -18 -5 -6 -12 -13 -19 -16 -16 -3 3 -6 -2
-6 -10 0 -9 4 -12 9 -7 10 10 80 3 73 -8 -2 -4 -16 -5 -30 -2 -21 3 -27 0 -32
-17 -3 -11 -10 -21 -15 -21 -5 0 -7 4 -4 9 3 5 -1 14 -9 21 -8 7 -15 8 -15 3
0 -5 -10 -9 -22 -10 -22 -2 -22 -1 -4 13 11 8 23 14 28 14 4 0 7 4 5 9 -1 5 7
17 18 26 19 16 19 16 -3 5 -13 -6 -26 -18 -29 -26 -3 -8 -11 -14 -18 -14 -8 0
-17 -9 -20 -20 -4 -11 -11 -18 -16 -14 -6 3 -5 12 3 22 12 15 11 16 -4 3 -20
-15 -25 -2 -6 17 7 7 8 12 2 12 -5 0 -15 -5 -22 -12 -16 -16 -33 30 -20 55 9
17 11 17 22 2 11 -15 12 -14 12 4 0 11 -2 18 -5 16 -2 -3 -10 0 -17 6 -22 18
-35 -31 -20 -81 6 -23 6 -23 -7 -8 -8 10 -17 15 -20 12 -11 -11 21 -34 37 -28
10 4 16 1 16 -9 0 -21 -17 -31 -23 -15 -3 7 -6 1 -6 -14 -1 -16 -4 -28 -8 -29
-43 -5 -73 -4 -73 1 0 4 -7 7 -15 7 -26 0 -10 -21 16 -22 14 -1 30 -4 35 -8
12 -7 66 26 59 36 -3 4 1 2 8 -4 9 -8 8 -14 -8 -26 -19 -15 -19 -15 8 -11 15
3 27 2 27 -2 0 -12 -36 -19 -50 -10 -16 10 -42 1 -34 -11 3 -5 -1 -9 -8 -9 -8
0 -6 -5 5 -11 9 -6 14 -15 11 -21 -4 -6 -3 -8 4 -4 12 7 21 -13 15 -31 -3 -6
-11 -9 -18 -7 -17 7 -29 -12 -14 -22 8 -4 9 -3 5 4 -4 7 -2 12 3 12 14 0 14
-27 0 -35 -6 -4 -21 3 -35 16 -13 12 -24 19 -24 16 0 -4 13 -20 30 -35 29 -28
29 -30 12 -46 -22 -19 -33 -12 -28 18 2 12 1 16 -1 9 -2 -7 -13 -15 -24 -18
-21 -7 -25 -20 -9 -30 6 -3 10 2 10 11 0 14 3 15 12 6 9 -9 10 -19 1 -42 -6
-16 -7 -32 -3 -35 12 -8 -10 -67 -23 -62 -6 2 -14 14 -18 28 -4 13 -7 17 -8 8
-1 -9 -7 -16 -13 -15 -18 0 -49 34 -39 41 5 3 7 14 4 25 -3 11 0 20 6 20 6 0
11 -8 12 -17 0 -14 2 -15 6 -3 3 8 12 23 21 33 10 11 11 17 4 17 -7 0 -12 -5
-12 -11 0 -5 -5 -7 -10 -4 -6 4 -7 11 -4 17 4 7 2 8 -4 4 -7 -4 -12 -3 -12 2
0 16 27 21 40 9 8 -8 8 -5 -1 10 -9 14 -17 19 -23 13 -6 -6 -16 -4 -28 7 -10
9 -18 11 -18 5 0 -7 -7 -9 -17 -5 -11 4 -14 3 -9 -5 4 -7 4 -17 1 -22 -11 -17
-35 9 -35 37 0 22 2 24 15 13 20 -16 19 -6 -1 14 -8 9 -11 16 -5 16 6 0 11 5
11 11 0 5 -4 8 -10 4 -5 -3 -9 50 -9 140 0 124 3 146 17 156 16 10 16 10 0 5
-17 -5 -18 7 -18 162 0 92 -4 172 -8 179 -4 6 -6 -664 -4 -1490 2 -1348 1
-1506 -14 -1549 -8 -26 -19 -50 -23 -52 -4 -3 0 18 10 47 17 49 18 134 19
1527 0 985 -4 1487 -10 1512 -23 81 -102 137 -195 138 -43 0 -176 17 -181 23
-1 1 -5 56 -9 122 -4 80 -12 133 -24 160 -20 44 -62 90 -101 110 -85 44 -338
77 -607 79 l-203 1 -2 323 c-1 177 -2 329 -2 338 -1 17 40 35 474 210 157 63
299 121 316 130 17 9 41 34 54 55 26 47 22 95 -13 134 -37 41 -623 292 -1557
665 -300 119 -604 243 -676 274 -72 31 -145 56 -162 56 -18 0 -62 -13 -99 -30
-76 -33 -252 -105 -768 -315 -790 -321 -1494 -623 -1521 -652 -27 -29 -34 -65
-23 -107 18 -65 41 -77 409 -218 129 -49 295 -112 367 -140 l132 -51 3 -332 3
-332 -235 -6 c-255 -6 -468 -32 -565 -68 -58 -22 -108 -69 -132 -127 -8 -20
-17 -85 -20 -151 -3 -64 -10 -119 -15 -122 -13 -8 -172 -29 -224 -29 -56 0
-114 -37 -144 -90 l-25 -45 -3 -1495 c-3 -1657 -7 -1546 63 -1628 19 -22 58
-52 87 -66 29 -14 44 -26 34 -26 -10 0 -14 -4 -10 -12 4 -7 3 -8 -5 -4 -6 4
-9 11 -7 15 3 4 -10 15 -29 24 -18 9 -35 13 -38 9 -2 -4 -3 -2 -1 4 1 7 -11
24 -26 39 -25 24 -30 26 -35 12 -8 -20 -32 -29 -32 -11 0 7 4 11 8 9 3 -3 12
2 18 9 8 9 8 17 2 20 -5 3 -12 0 -15 -6 -4 -7 -4 -3 -2 10 3 13 -2 39 -10 57
-8 19 -14 46 -14 61 0 23 -3 25 -25 20 -24 -6 -25 -6 -8 14 18 21 28 27 18 10
-3 -5 -1 -10 4 -10 6 0 11 7 11 15 0 8 -5 15 -10 15 -6 0 -10 7 -8 16 2 10 -4
19 -12 21 -13 4 -13 3 0 -6 8 -6 10 -11 4 -11 -6 0 -10 -10 -10 -22 1 -14 -5
-23 -14 -23 -8 -1 -14 -6 -13 -13 2 -6 -4 -9 -12 -6 -12 5 -10 10 8 25 22 19
22 19 3 34 -16 12 -17 15 -4 15 9 0 19 7 22 16 4 9 13 14 21 10 9 -3 15 0 15
9 0 22 -13 18 -44 -10 -15 -14 -33 -25 -41 -25 -7 0 -20 -3 -29 -6 -11 -4 -14
0 -11 15 3 14 0 19 -7 15 -8 -5 -9 -1 -4 11 5 15 4 16 -9 5 -13 -11 -13 -15
-3 -21 7 -5 14 -13 14 -19 1 -5 2 -14 3 -18 0 -5 8 -9 16 -9 8 0 12 4 9 9 -3
4 2 8 11 8 9 0 13 -5 9 -11 -4 -8 0 -9 15 -4 13 4 21 2 21 -5 0 -6 -4 -9 -9
-5 -6 3 -15 -4 -21 -15 -6 -11 -15 -20 -21 -20 -6 0 -7 5 -4 10 3 6 -1 13 -10
17 -10 3 -21 0 -25 -7 -4 -7 -13 -9 -19 -5 -9 5 -8 10 4 19 15 11 14 12 -3 12
-14 0 -18 -7 -17 -26 2 -33 -5 -46 -17 -29 -8 11 -9 11 -5 -1 2 -8 10 -14 17
-12 7 1 9 -4 6 -16 -3 -10 1 -27 9 -38 9 -12 14 -14 15 -6 0 9 7 11 22 6 13
-3 20 -3 16 1 -4 5 -3 14 4 22 8 11 8 17 -2 26 -10 9 -11 9 -6 0 5 -9 -1 -13
-21 -13 -27 1 -27 1 -8 16 19 16 19 16 -5 10 -24 -7 -24 -6 -6 8 14 12 23 13
33 5 7 -6 20 -8 29 -5 13 5 15 2 10 -19 -5 -18 -2 -27 9 -31 8 -4 15 -10 15
-16 0 -5 -5 -6 -12 -2 -7 4 -8 3 -4 -5 4 -6 11 -9 16 -6 5 3 11 1 15 -5 4 -6
11 -7 17 -4 6 4 5 10 -3 16 -11 8 -10 9 4 4 19 -6 22 10 7 34 -8 13 -10 13
-10 -2 0 -15 -4 -16 -25 -6 -23 10 -26 28 -4 28 6 0 7 -4 4 -10 -3 -5 -1 -10
4 -10 6 0 11 4 11 9 0 5 9 11 19 14 13 3 18 1 14 -9 -2 -7 0 -21 5 -30 8 -14
5 -22 -14 -37 -13 -10 -32 -16 -42 -13 -13 4 -18 0 -19 -14 -1 -11 2 -22 8
-25 16 -10 10 -32 -10 -38 -15 -4 -19 0 -16 14 2 11 0 19 -6 19 -5 0 -9 -5 -9
-11 0 -5 -4 -8 -9 -5 -5 3 -12 -1 -15 -10 -4 -11 -2 -15 8 -11 23 9 25 -16 3
-33 -14 -12 -18 -23 -13 -38 8 -26 28 -28 46 -7 7 8 17 15 23 15 6 0 7 -3 4
-7 -4 -3 -1 -13 6 -21 10 -13 9 -14 -9 -4 -21 11 -34 7 -34 -10 0 -5 5 -6 10
-3 6 3 10 1 10 -4 0 -14 -17 -14 -25 0 -4 6 -12 8 -19 6 -6 -3 -20 1 -30 8
-10 8 -23 12 -29 11 -7 -2 -9 -1 -4 1 4 3 5 8 2 13 -3 5 1 15 10 23 13 13 13
16 0 27 -11 9 -15 10 -15 1 0 -7 -5 -9 -12 -5 -8 5 -9 9 -1 11 14 5 1 55 -15
61 -7 2 -12 -1 -12 -7 0 -6 4 -11 9 -11 10 0 8 -21 -5 -54 -5 -13 -4 -17 4
-12 19 12 23 -13 6 -39 -10 -15 -12 -25 -5 -25 6 0 11 -5 11 -12 0 -8 -5 -7
-15 3 -16 15 -11 49 6 49 5 0 9 4 9 8 0 16 -30 9 -30 -7 -1 -9 -7 -29 -14 -46
l-14 -30 -10 25 c-9 22 -18 13 -13 -14 1 -5 -6 -6 -15 -2 -9 3 -24 1 -33 -6
-14 -12 -14 -11 -2 5 7 9 11 17 8 17 -3 0 -13 3 -23 7 -11 4 -15 3 -11 -4 4
-7 0 -10 -10 -9 -34 5 -26 26 9 22 34 -4 62 9 52 25 -3 5 -10 6 -17 2 -6 -3
-25 -8 -43 -9 -38 -2 -57 -12 -49 -25 13 -20 13 -48 -1 -53 -15 -6 -15 14 1
27 8 6 -33 5 -65 -2 -3 -1 2 -6 10 -11 10 -7 11 -10 3 -11 -23 -3 -28 -4 -40
-12 -22 -14 -14 0 17 31 17 17 30 26 30 20 0 -7 5 -7 13 1 8 6 18 7 23 3 4 -4
2 1 -5 10 -7 10 -18 15 -24 11 -6 -4 -8 2 -4 17 6 24 -7 59 -27 73 -7 5 -5 12
6 21 10 7 18 18 18 25 0 6 5 11 11 11 6 0 9 -6 6 -14 -7 -17 21 -58 34 -50 6
3 3 11 -8 19 -15 11 -13 12 17 9 18 -2 36 -7 39 -10 3 -4 -5 -4 -19 -1 -24 6
-24 5 -6 -8 25 -19 40 -19 56 0 11 13 10 14 -4 9 -9 -3 -16 -1 -16 6 0 6 5 8
11 4 7 -4 10 -1 7 7 -3 8 -12 13 -22 11 -10 -2 -16 4 -16 15 0 14 2 15 9 4 6
-9 11 -10 15 -2 4 6 1 11 -6 12 -10 0 -10 2 0 6 6 2 10 9 7 13 -8 13 -42 -22
-37 -37 7 -20 -39 -16 -54 4 -11 15 -16 16 -33 5 -26 -15 -41 -15 -41 -1 0 6
6 9 14 6 8 -3 17 1 20 9 4 12 10 13 26 4 20 -11 40 -6 40 9 0 5 -12 6 -26 3
-20 -3 -25 -2 -19 7 4 7 13 10 21 7 8 -3 14 -1 14 5 0 7 10 9 26 5 21 -6 25
-4 21 8 -4 9 -2 16 4 16 6 0 7 5 4 10 -8 14 -26 13 -22 -1 1 -6 -4 -14 -11
-16 -10 -4 -10 1 -1 21 11 24 21 30 41 27 4 0 3 11 -2 25 -13 33 -12 54 1 31
13 -22 29 -22 29 1 0 13 -2 14 -9 4 -7 -11 -9 -11 -14 2 -4 9 -10 16 -14 15
-22 -4 -44 2 -39 10 4 5 -2 8 -11 7 -9 -2 -18 -8 -19 -15 -1 -6 0 -7 3 -1 6
14 23 3 23 -16 0 -8 -9 -14 -21 -14 -11 0 -18 -4 -14 -9 3 -5 1 -12 -4 -15
-13 -8 -42 4 -35 15 3 5 0 9 -5 9 -6 0 -11 -4 -11 -10 0 -15 -28 0 -32 18 -6
23 4 46 22 50 12 3 11 0 -2 -15 -13 -14 -14 -22 -7 -33 9 -12 10 -12 5 3 -3
10 0 17 7 17 7 0 14 12 15 26 2 22 0 25 -13 14 -18 -15 -20 1 -3 18 7 7 9 12
4 12 -4 0 -14 -7 -23 -15 -8 -8 -18 -13 -23 -10 -4 3 -12 -1 -17 -8 -15 -18
-23 -57 -12 -57 8 0 13 21 11 41 -1 4 8 9 19 12 16 4 18 3 8 -9 -6 -8 -8 -14
-4 -14 4 0 2 -7 -5 -15 -9 -11 -9 -15 -1 -15 7 0 9 -5 6 -10 -4 -6 -11 -8 -16
-5 -5 4 -9 1 -9 -5 0 -7 6 -10 14 -7 8 3 20 -1 27 -9 8 -10 16 -11 22 -5 15
15 35 2 30 -19 -3 -12 1 -19 13 -22 17 -3 17 -4 0 -20 -12 -13 -14 -18 -4 -18
21 -1 -35 -40 -57 -40 -17 0 -17 -2 -5 -10 8 -5 10 -10 4 -10 -6 0 -17 7 -24
15 -7 9 -15 13 -18 10 -3 -3 -11 0 -19 6 -9 9 -13 8 -13 0 0 -6 6 -11 13 -11
9 0 8 -3 -2 -9 -8 -5 -9 -11 -3 -15 5 -3 13 2 16 11 6 14 9 15 16 4 4 -8 6
-20 3 -27 -7 -18 13 -26 27 -9 6 7 18 11 25 9 19 -8 -1 -51 -27 -57 -13 -4
-17 -10 -12 -18 6 -10 9 -10 12 -1 2 7 9 12 14 12 6 0 8 -3 5 -7 -4 -3 1 -12
11 -20 15 -13 15 -13 -5 -3 -20 9 -23 8 -23 -10 0 -14 4 -19 13 -14 7 4 9 3 4
-2 -5 -5 -14 -9 -20 -9 -7 0 -12 -7 -12 -15 -1 -8 -7 -13 -15 -11 -8 2 -21 4
-27 4 -7 0 -13 5 -13 10 0 6 -2 8 -5 5 -8 -8 6 -39 15 -33 5 3 12 0 16 -6 5
-9 -1 -10 -24 -6 -42 9 -62 -15 -30 -37 12 -9 17 -16 11 -16 -7 0 -23 11 -36
24 -25 25 -46 24 -25 -1 9 -11 7 -12 -7 -7 -15 6 -16 4 -6 -14 7 -12 17 -22
24 -23 8 0 7 -2 -2 -6 -10 -4 -10 -7 -1 -13 8 -5 7 -9 -5 -13 -9 -4 -13 -3
-10 2 3 5 1 12 -5 16 -5 3 -10 15 -10 26 0 13 -4 18 -11 13 -7 -4 -4 7 7 25
10 17 25 31 34 32 13 0 13 1 0 6 -33 10 -60 27 -60 36 0 5 7 3 16 -4 9 -7 25
-15 37 -16 21 -3 21 -3 2 15 -11 11 -23 17 -28 15 -4 -2 -6 1 -5 9 3 14 -5 14
-36 2 -14 -5 -17 -4 -12 4 4 7 13 12 21 12 8 0 17 5 21 12 5 7 3 8 -7 3 -12
-7 -12 -6 -1 7 10 13 8 18 -12 31 -17 12 -22 22 -19 41 5 27 17 33 28 16 3 -5
1 -10 -4 -10 -6 0 -11 -6 -11 -13 0 -17 34 -49 43 -41 4 4 4 -3 2 -15 -2 -12
0 -19 6 -16 5 4 6 11 3 17 -4 7 -2 8 4 4 16 -10 15 2 -2 19 -7 8 -17 11 -22 7
-5 -4 -2 1 5 11 10 12 16 14 21 7 5 -8 9 -7 13 3 3 8 0 23 -8 34 -11 15 -11
21 1 34 8 9 16 26 17 38 1 11 5 21 9 21 4 0 8 4 8 10 0 5 -7 7 -15 4 -8 -4
-15 -13 -15 -21 0 -8 -4 -12 -9 -9 -5 4 -7 -2 -4 -13 6 -23 -16 -39 -28 -20
-7 12 -9 11 -10 -1 -1 -8 -1 -19 0 -24 1 -5 -5 -6 -13 -3 -16 6 -32 -19 -35
-59 0 -8 -6 -12 -11 -9 -6 4 -8 11 -5 16 4 5 1 9 -6 9 -7 0 -4 7 7 15 14 11
15 14 3 9 -10 -3 -20 0 -24 7 -6 9 -1 10 19 7 17 -3 26 -1 26 7 0 7 7 15 15
18 8 4 12 15 10 27 -3 14 5 30 23 47 15 14 28 29 28 34 1 5 2 16 3 24 0 9 11
20 24 25 19 8 18 9 -10 6 -18 -2 -35 0 -39 5 -3 5 2 9 10 9 14 0 14 3 -2 18
-22 23 -56 23 -58 -1 -1 -12 -1 -13 3 -2 2 8 9 15 14 15 6 0 7 -5 3 -12 -5 -7
-2 -9 9 -5 11 4 14 2 10 -8 -3 -8 -9 -13 -13 -10 -5 3 -12 0 -16 -6 -4 -7 -3
-9 4 -5 6 3 13 2 17 -4 7 -11 -15 -13 -39 -4 -9 3 -13 11 -9 17 4 6 1 7 -7 2
-10 -6 -6 -13 13 -27 30 -22 35 -53 12 -62 -8 -3 -15 -1 -15 3 0 5 6 12 13 14
9 4 9 6 0 6 -6 1 -14 -3 -18 -9 -3 -5 -13 -6 -21 -3 -9 3 -20 0 -25 -8 -7 -11
-9 -11 -9 4 0 10 -8 17 -21 17 -11 0 -18 4 -15 9 7 10 25 9 44 -3 28 -17 20 2
-10 24 -21 15 -33 19 -36 12 -2 -7 -8 -10 -13 -6 -5 3 -9 1 -9 -4 0 -5 -12 -7
-26 -4 -19 3 -24 9 -21 23 3 12 1 17 -6 12 -6 -4 -8 0 -4 10 4 10 0 20 -11 26
-16 10 -16 10 1 11 24 0 32 -4 29 -13 -1 -5 2 -6 8 -2 6 3 8 10 5 15 -3 5 0
12 6 16 6 3 9 18 6 33 -9 44 17 70 35 36 6 -10 6 -21 -2 -30 -8 -10 -8 -15 1
-21 8 -4 9 -3 5 4 -4 7 -2 12 4 12 16 0 8 52 -12 72 -19 20 -50 14 -41 -7 3
-10 -2 -13 -17 -10 -16 3 -20 0 -16 -10 3 -8 0 -14 -6 -12 -6 1 -12 -3 -14 -8
-2 -6 4 -11 15 -11 11 0 19 3 19 6 -1 18 3 32 8 27 11 -10 12 -64 3 -78 -7
-11 -9 -10 -9 3 0 9 -4 19 -9 22 -5 4 -7 -3 -4 -14 4 -15 1 -18 -16 -15 -19 3
-21 -1 -21 -38 0 -32 3 -38 11 -27 8 11 9 7 4 -17 -7 -34 13 -153 25 -153 4 0
7 11 6 25 0 14 -5 25 -9 25 -5 0 -5 5 -2 10 10 16 25 12 26 -7 0 -12 2 -13 6
-5 7 17 32 -15 33 -41 0 -14 -4 -16 -19 -8 -36 20 -50 -36 -22 -84 3 -5 6 -17
8 -25 1 -8 9 -38 19 -66 15 -46 19 -50 44 -46 26 4 34 21 17 38 -4 4 -7 11 -7
16 0 5 7 2 16 -6 8 -9 12 -21 8 -28 -5 -8 -2 -9 9 -5 12 4 14 2 10 -10 -3 -8
0 -19 8 -24 11 -7 10 -9 -4 -9 -10 0 -16 -4 -13 -9 3 -5 -2 -15 -11 -22 -15
-12 -16 -12 -8 1 5 8 11 24 12 36 3 18 -1 20 -27 16 -16 -2 -30 -8 -30 -13 0
-5 8 -6 18 -3 14 5 14 4 2 -5 -12 -8 -9 -20 19 -79 29 -61 36 -68 57 -64 13 2
21 9 18 14 -3 5 0 9 7 7 27 -3 40 1 34 11 -3 6 -2 10 4 10 19 0 21 -19 2 -25
-11 -3 -18 -13 -16 -23 1 -9 0 -11 -2 -5 -3 7 -9 13 -14 13 -6 0 -8 -4 -5 -9
3 -4 -6 -6 -19 -3 -15 2 -25 0 -25 -7 0 -6 6 -10 13 -9 6 2 11 -3 9 -10 -4
-20 18 -53 30 -46 6 4 8 3 4 -4 -9 -14 14 -62 30 -62 7 0 11 -6 9 -12 -2 -7 9
-29 25 -48 27 -30 37 -30 31 3 -1 5 3 6 9 2 6 -4 7 -12 1 -24 -13 -23 37 -90
51 -69 8 10 9 9 5 -4 -6 -19 15 -42 28 -30 5 4 5 2 1 -5 -7 -13 10 -26 37 -28
12 -1 16 3 12 14 -5 12 -3 13 6 4 15 -15 3 -34 -19 -26 -9 3 5 -15 32 -40 27
-26 53 -44 58 -41 5 3 7 1 6 -4 -3 -11 55 -60 130 -109 41 -26 57 -31 67 -23
15 12 30 -3 20 -20 -6 -9 7 -14 21 -7 3 1 10 -5 15 -14 15 -28 223 -109 404
-157 74 -20 245 -44 279 -40 19 2 33 1 30 -3 -8 -14 233 -16 2426 -14 1684 1
2222 4 2310 14 127 14 293 48 415 86 43 13 81 22 83 20 7 -7 -188 -64 -291
-84 -225 -45 -217 -45 -2517 -48 -2280 -4 -2420 -2 -2639 37 -290 53 -570 181
-780 358 -112 95 -131 114 -206 207 -207 255 -318 540 -357 915 -19 183 -19
4514 0 4675 62 523 288 915 676 1176 266 179 567 271 976 299 191 12 4478 5
4595 -8z m-2048 -1543 c241 -82 362 -127 768 -284 215 -84 267 -120 305 -207
26 -61 28 -88 34 -621 3 -332 4 -349 23 -370 35 -38 45 -68 44 -130 0 -48 -6
-68 -28 -99 l-27 -39 32 -97 c42 -130 88 -317 103 -423 11 -78 11 -90 -4 -113
-26 -39 -66 -54 -170 -67 -132 -15 -221 -1 -259 41 -17 18 -28 42 -28 59 0 49
57 373 86 489 l28 109 -28 36 c-61 80 -55 150 20 216 l45 40 -3 433 c-3 392
-5 436 -21 465 -9 18 -28 40 -42 49 -38 25 -690 269 -1040 389 -175 61 -215
84 -215 127 0 44 44 86 92 87 9 1 137 -40 285 -90z m-1667 -1479 c217 -167
615 -308 1013 -358 132 -17 152 -22 202 -53 31 -19 81 -60 112 -92 30 -32 56
-57 57 -55 21 38 94 110 145 143 61 41 75 46 193 65 189 30 347 65 497 110 73
23 135 39 136 38 11 -13 45 -105 45 -121 0 -11 -7 -47 -16 -79 l-17 -58 -41 0
c-139 -1 -280 -62 -387 -169 -130 -130 -191 -283 -192 -486 0 -94 4 -121 27
-190 66 -194 202 -338 373 -396 90 -31 278 -34 363 -5 163 54 305 190 364 348
14 36 31 110 39 164 13 84 18 101 38 113 39 25 94 85 112 123 37 79 9 284 -79
566 -25 81 -26 83 -9 125 27 64 25 207 -3 271 -12 27 -22 53 -22 59 0 12 420
2 535 -13 104 -14 142 -27 158 -53 9 -17 12 -337 12 -1479 0 -1345 -1 -1459
-17 -1474 -15 -15 -29 -15 -210 5 -532 58 -956 51 -1363 -24 -239 -44 -431
-113 -598 -214 -48 -28 -88 -51 -91 -51 -3 0 -27 16 -53 36 -156 119 -428 207
-783 253 -438 58 -697 54 -1341 -15 -100 -11 -90 -176 -87 1485 2 1129 6 1461
15 1477 17 29 54 41 170 53 54 6 114 13 133 15 19 2 136 3 260 2 l225 -1 85
-65z m4990 -476 c-10 -11 -3 -24 12 -24 5 0 6 5 3 10 -3 6 1 10 9 10 9 0 15
-3 14 -7 -2 -14 14 -43 24 -43 5 0 6 6 2 13 -4 6 1 5 11 -5 11 -10 14 -21 9
-30 -16 -25 -12 -58 7 -58 10 0 20 -4 23 -9 3 -4 -6 -6 -20 -3 -22 4 -24 2
-20 -23 5 -29 35 -57 50 -48 5 4 6 1 3 -5 -8 -12 -47 -4 -47 9 0 5 -7 9 -16 9
-13 0 -14 -3 -5 -14 9 -10 8 -15 -2 -19 -10 -4 -13 2 -11 19 1 13 -2 25 -7 25
-19 3 -24 5 -36 12 -8 5 -13 3 -13 -5 0 -10 -2 -10 -9 1 -5 8 -7 21 -4 28 5
12 7 12 14 1 5 -7 9 -9 9 -4 0 5 9 1 20 -9 11 -10 20 -13 20 -7 0 6 -5 14 -10
17 -6 4 -8 10 -5 15 3 5 1 11 -5 15 -5 3 -10 1 -10 -5 0 -6 -5 -8 -10 -5 -12
7 12 35 31 35 12 0 3 15 -9 15 -4 0 -13 4 -19 8 -8 5 -13 3 -13 -4 0 -6 -8 -9
-20 -6 -10 3 -22 0 -25 -7 -3 -6 -3 -1 -1 11 3 20 -10 33 -35 33 -5 0 -14 -12
-19 -26 -6 -14 -14 -22 -20 -19 -5 3 -10 -1 -10 -10 0 -9 4 -14 9 -10 5 3 12
1 15 -4 4 -5 -3 -12 -14 -16 -11 -3 -20 -14 -20 -23 0 -14 -2 -15 -9 -3 -8 12
-12 13 -25 1 -14 -11 -16 -10 -10 4 3 9 15 21 25 27 26 13 24 29 -3 29 -12 0
-18 3 -15 7 4 3 2 12 -4 19 -8 9 -5 11 11 7 11 -3 23 -9 25 -14 7 -11 55 38
55 56 0 17 9 19 30 5 13 -8 12 -10 -4 -10 -25 0 -18 -5 17 -14 17 -4 26 -3 23
3 -3 5 1 12 10 15 8 3 12 11 9 16 -5 8 -11 7 -21 -1 -17 -14 -19 -3 -2 14 15
16 51 17 38 1z m-2650 -151 c0 -5 -7 -48 -15 -98 -8 -49 -15 -93 -15 -96 0 -4
-18 -9 -41 -13 -93 -15 -153 -66 -189 -163 -29 -77 -25 -216 8 -279 44 -86
121 -128 222 -122 114 7 186 76 218 209 l17 69 105 -6 c58 -4 107 -8 109 -10
10 -9 -23 -148 -48 -201 -126 -262 -482 -314 -679 -98 -87 95 -121 190 -122
335 0 237 128 416 335 466 59 15 95 17 95 7z m2364 -239 c9 -23 7 -36 -3 -29
-5 3 -12 -4 -16 -15 -3 -11 -10 -20 -15 -20 -5 0 -7 -9 -5 -19 3 -16 -1 -19
-23 -16 -26 4 -26 4 -5 -7 26 -13 58 -4 47 14 -6 10 -5 10 7 1 13 -10 16 -10
16 2 0 8 -4 15 -9 15 -4 0 -8 7 -8 15 0 22 18 18 25 -5 3 -11 10 -20 15 -20
15 0 19 -41 4 -47 -8 -3 -14 -9 -14 -14 0 -4 7 -6 15 -3 8 4 15 1 15 -5 0 -6
-5 -10 -12 -8 -7 1 -13 -8 -14 -21 -1 -15 3 -21 11 -18 14 5 15 -11 2 -31 -5
-8 -3 -13 3 -13 6 0 13 8 17 18 3 9 17 27 32 40 l26 24 -25 -6 c-14 -3 -19 -3
-12 0 16 8 16 28 -1 21 -7 -3 -14 3 -15 12 -2 19 -10 56 -12 56 -1 0 -3 15 -4
33 -2 17 1 32 6 32 5 0 7 -4 3 -9 -3 -5 -1 -12 4 -16 5 -3 8 -14 6 -25 -2 -11
0 -22 5 -25 5 -3 6 -13 3 -21 -7 -19 13 -34 40 -29 15 4 17 2 7 -10 -12 -14
-6 -20 15 -15 5 1 6 -2 2 -7 -5 -4 -12 -8 -15 -9 -4 0 -15 -4 -25 -9 -14 -6
-15 -10 -6 -21 8 -10 8 -14 0 -14 -6 0 -11 6 -12 13 0 6 -4 3 -9 -8 -6 -15 -2
-25 14 -38 11 -10 16 -16 10 -13 -6 3 -19 -3 -29 -14 -16 -18 -16 -19 4 -17
12 1 21 5 21 10 0 12 18 -1 30 -22 7 -15 6 -18 -7 -17 -28 2 -25 -22 4 -32 17
-7 21 -11 11 -11 -10 -1 -17 -4 -17 -8 3 -17 -2 -24 -11 -18 -8 5 -7 12 1 22
11 12 9 14 -12 10 -13 -2 -18 -2 -11 0 7 3 9 9 6 14 -3 6 2 20 13 31 12 15 14
20 4 16 -8 -2 -19 -13 -25 -23 -6 -11 -19 -26 -29 -33 -13 -10 -15 -17 -7 -27
7 -9 6 -16 -5 -25 -8 -7 -12 -17 -8 -24 4 -6 0 -5 -9 2 -11 9 -18 10 -23 2 -9
-15 5 -32 22 -26 9 4 11 2 7 -6 -5 -8 -2 -9 11 -4 15 5 16 4 5 -9 -10 -12 -10
-16 2 -20 8 -3 15 -19 15 -36 0 -24 -2 -27 -10 -14 -5 9 -10 23 -11 31 -1 8
-14 26 -28 41 -24 26 -51 94 -42 107 2 4 -1 2 -8 -4 -8 -7 -8 -16 -1 -32 7
-17 6 -29 -4 -45 -13 -20 -12 -22 22 -33 20 -7 34 -14 32 -17 -3 -2 -21 3 -41
11 -26 11 -36 21 -34 33 2 14 -3 17 -27 15 -28 -2 -36 -2 -77 -1 -27 1 -31 16
-8 39 11 11 16 20 11 20 -5 0 -8 11 -5 25 3 19 -1 28 -20 36 -27 13 -38 40
-25 60 8 11 11 11 20 -4 6 -9 15 -15 20 -11 6 4 3 14 -8 27 -10 11 -12 17 -5
13 11 -7 16 6 15 42 -1 6 6 12 14 12 9 0 13 6 10 14 -3 8 -3 17 1 21 4 4 8 11
8 16 1 5 2 12 3 16 0 4 8 -2 16 -13 8 -10 15 -14 14 -9 -3 23 2 25 26 9 14 -9
25 -23 25 -32 0 -13 3 -13 19 2 19 17 39 7 27 -13 -3 -5 2 -15 11 -22 15 -12
16 -12 11 8 -3 12 -1 24 6 26 6 2 -3 11 -21 20 -38 20 -47 21 -37 6 4 -7 1
-10 -7 -7 -8 3 -13 11 -11 18 2 7 -3 10 -11 7 -8 -3 -13 3 -14 14 -2 19 8 23
36 19 13 -1 13 1 1 14 -20 25 -21 76 -1 76 11 0 12 -3 4 -8 -7 -4 -9 -13 -4
-21 11 -17 34 -4 27 14 -5 13 2 25 15 25 4 0 10 -7 13 -16z m-5797 -1687 c-1
-292 -2 -53 -2 533 0 586 1 825 2 532 2 -292 2 -772 0 -1065z m5598 1349 c8
-7 11 -16 8 -19 -3 -4 -7 -17 -8 -29 -1 -13 -3 -26 -4 -30 -2 -9 -31 -3 -39 8
-9 12 -46 18 -38 6 3 -6 -1 -13 -10 -16 -11 -4 -15 -2 -11 7 3 8 -1 14 -9 14
-15 0 -18 -9 -7 -21 11 -11 12 -36 2 -36 -6 0 -7 -5 -4 -10 4 -6 -1 -22 -10
-37 -10 -14 -12 -22 -4 -18 8 5 10 4 5 -3 -4 -7 -1 -12 6 -12 10 0 10 -2 -1
-9 -8 -5 -9 -11 -3 -15 16 -10 24 11 13 33 -8 14 -7 22 4 31 8 7 15 19 15 26
0 9 11 14 31 14 23 0 30 4 26 15 -5 12 -1 12 31 -2 20 -8 45 -19 54 -24 23
-12 41 -11 34 0 -7 11 20 8 31 -3 4 -4 1 -6 -7 -4 -8 2 -14 -2 -13 -9 2 -9 -4
-10 -21 -3 -19 7 -28 5 -38 -7 -11 -15 -11 -16 5 -10 20 7 47 -1 47 -15 0 -5
-5 -6 -10 -3 -6 3 -13 0 -16 -9 -5 -12 -9 -11 -25 5 -10 10 -19 22 -19 27 0 4
-9 13 -20 20 -13 8 -20 8 -20 1 0 -5 -5 -7 -12 -3 -7 5 -9 2 -4 -7 4 -8 1 -6
-7 4 -8 9 -20 17 -27 17 -8 0 -4 -10 11 -27 l24 -27 -26 16 c-26 17 -39 15
-39 -5 0 -6 3 -8 6 -4 4 3 20 -1 36 -9 28 -15 29 -16 11 -29 -10 -7 -18 -19
-18 -26 0 -7 -6 -14 -12 -16 -21 -7 -14 21 8 35 15 9 18 17 11 24 -11 11 -35
2 -28 -10 2 -4 -7 -15 -19 -24 -23 -17 -24 -17 -30 12 -4 16 -6 32 -5 35 0 3
-6 13 -15 21 -12 13 -19 14 -30 4 -8 -7 -12 -17 -9 -22 4 -6 9 -5 14 2 6 9 11
7 19 -9 10 -18 9 -21 -6 -21 -16 -1 -16 -2 2 -12 11 -6 25 -18 31 -27 13 -17
7 -44 -7 -35 -5 3 -7 10 -4 15 4 5 1 9 -4 9 -6 0 -11 -5 -11 -11 0 -5 -4 -8
-9 -4 -5 3 -13 1 -16 -5 -13 -21 -35 11 -33 49 l1 36 4 -33 c2 -18 8 -30 14
-27 5 3 6 -2 3 -12 -5 -17 -5 -17 9 -1 8 10 16 15 19 12 4 -3 9 -1 12 5 8 12
-28 33 -39 23 -5 -4 -5 -1 -1 6 5 8 1 21 -9 32 -16 18 -16 20 -1 26 9 3 21 15
27 25 8 15 7 17 -8 12 -17 -6 -17 -5 -2 13 9 10 14 24 12 31 -2 6 4 13 14 15
15 3 14 5 -5 10 -14 4 -20 2 -15 -5 4 -6 0 -8 -10 -4 -10 3 -17 2 -17 -2 0 -5
8 -12 18 -16 16 -6 16 -7 -2 -20 -11 -8 -16 -21 -13 -30 4 -8 2 -15 -3 -15 -6
0 -10 11 -10 25 0 14 5 25 10 25 6 0 5 8 -2 20 -11 17 -10 22 2 30 13 9 13 10
0 10 -13 0 -13 1 0 10 9 5 19 5 27 -1 7 -6 17 -8 23 -4 6 4 13 -7 17 -26 5
-29 7 -30 14 -12 6 16 15 21 43 19 30 -1 37 3 50 31 18 37 22 39 41 19z
m-4147 -2143 c-289 -2 -766 -2 -1060 0 -293 1 -56 2 527 2 583 0 823 -1 533
-2z"/>
<path d="M8950 6106 c6 -6 10 -16 10 -24 0 -12 -3 -12 -16 -2 -8 8 -14 9 -12
3 2 -6 -1 -11 -7 -11 -5 0 -9 5 -7 12 3 8 0 8 -8 -1 -10 -9 -6 -18 16 -40 15
-15 22 -20 15 -11 -7 9 -10 22 -6 28 5 8 12 4 22 -10 11 -16 12 -24 3 -35 -6
-8 -9 -18 -6 -23 3 -6 -2 -16 -11 -23 -19 -16 -23 -16 -34 3 -6 9 -9 9 -9 1 0
-6 5 -15 10 -18 17 -10 1 -24 -21 -20 -21 4 -21 3 -4 -15 9 -10 14 -23 11 -28
-3 -5 5 -8 17 -8 12 1 28 -3 36 -8 11 -8 13 -8 7 2 -4 6 -3 12 2 12 6 0 12 7
16 15 3 8 2 14 -2 14 -4 -1 -14 -1 -22 0 -13 1 -13 3 0 10 8 6 18 7 22 5 4 -3
8 0 8 5 0 6 8 11 18 11 13 0 14 -2 4 -9 -11 -7 -11 -9 2 -14 23 -9 10 -77 -15
-77 -6 0 -9 6 -6 13 2 6 10 11 16 9 7 -1 9 3 6 9 -5 8 -12 6 -23 -5 -22 -22
-1 -46 23 -26 13 11 15 9 15 -14 0 -14 -6 -26 -12 -26 -10 0 -10 -2 0 -8 7 -5
10 -16 6 -25 -3 -10 -1 -17 5 -17 8 0 11 50 11 160 0 148 -1 159 -17 153 -10
-4 -22 -13 -27 -21 -7 -12 -10 -12 -17 -1 -4 7 -3 19 2 25 7 8 6 15 -2 19 -8
6 -8 10 2 16 10 6 7 8 -9 6 -14 -1 -18 -5 -12 -11z"/>
<path d="M8809 5682 c0 -15 -3 -21 -6 -14 -2 6 -9 12 -14 12 -6 0 -7 -5 -3
-11 3 -6 0 -15 -7 -20 -7 -4 -10 -12 -5 -16 5 -4 11 -3 13 4 2 7 11 9 19 6 23
-8 16 -20 -11 -20 -32 0 -32 0 -39 -47 -4 -21 -9 -43 -12 -48 -4 -6 0 -14 7
-19 20 -12 26 -11 26 6 0 8 -4 12 -9 9 -4 -3 -8 0 -8 5 0 6 7 11 15 11 8 0 15
-5 15 -11 0 -5 4 -8 9 -5 10 7 34 -18 26 -26 -3 -3 10 -5 29 -4 19 0 32 5 28
10 -3 5 0 6 6 2 8 -5 9 -13 3 -24 -4 -9 -6 -23 -4 -29 3 -7 -2 -13 -11 -13 -9
0 -16 -4 -16 -9 0 -6 9 -9 20 -8 12 1 20 8 20 19 0 9 4 19 8 22 5 3 8 19 7 36
-1 16 2 30 8 30 5 0 7 6 4 13 -3 7 3 13 13 13 16 0 17 -2 4 -20 -18 -26 -18
-33 0 -33 8 0 12 6 8 15 -3 9 -1 13 5 9 6 -4 13 4 15 18 5 23 3 25 -26 21 -17
-2 -41 -7 -54 -10 -19 -4 -21 -2 -12 15 6 10 16 19 22 19 7 0 7 4 -1 13 -6 8
-8 17 -4 20 3 4 1 7 -6 7 -7 0 -10 4 -7 9 3 4 -3 19 -14 31 -16 19 -20 20 -20
6 0 -9 6 -19 14 -22 10 -4 6 -13 -15 -37 -16 -18 -25 -33 -19 -35 18 -6 31
-40 18 -48 -6 -4 -8 -3 -4 4 3 6 2 13 -4 17 -14 9 -13 -18 2 -33 9 -9 9 -12 1
-12 -7 0 -15 6 -20 13 -9 14 -12 87 -4 87 3 0 12 9 18 20 11 16 10 18 -2 14
-11 -5 -15 1 -15 21 0 15 4 24 10 20 6 -3 10 -2 10 3 0 6 -7 12 -15 16 -11 4
-15 -2 -16 -22z"/>
<path d="M1884 2608 c-4 -7 -3 -8 5 -4 14 9 11 -38 -4 -51 -4 -4 -5 -3 -2 3 4
6 0 20 -9 30 -15 18 -15 18 -5 -2 7 -15 7 -25 -2 -34 -10 -10 -7 -11 15 -6 21
5 26 3 22 -8 -6 -14 28 -40 39 -30 3 3 8 0 12 -7 6 -9 1 -10 -18 -5 -21 5 -25
3 -21 -8 4 -11 12 -12 36 -4 21 7 26 14 19 21 -15 15 -14 30 2 20 6 -4 17 -8
22 -9 6 0 19 -2 30 -3 11 -2 15 -5 8 -8 -19 -7 3 -43 27 -43 14 0 18 -5 14
-17 -4 -10 5 -5 18 11 18 21 30 27 43 22 15 -5 16 -4 5 9 -7 8 -17 12 -23 8
-6 -3 -7 -1 -3 5 4 6 14 8 24 5 13 -5 14 -3 5 7 -6 7 -9 18 -7 25 3 7 1 16 -5
20 -6 3 -9 0 -5 -8 4 -10 -4 -16 -25 -19 -34 -5 -43 -1 -60 27 -11 18 -12 17
-6 -8 5 -24 4 -26 -8 -16 -8 8 -14 22 -13 33 1 11 -5 21 -13 24 -9 3 -12 0 -8
-10 3 -9 0 -21 -6 -27 -18 -18 -29 -13 -17 8 13 26 13 28 -6 35 -13 5 -14 4
-6 -7 24 -28 -1 -25 -29 4 -32 33 -35 34 -45 17z"/>
<path d="M4080 5450 c-86 -11 -155 -38 -236 -92 -266 -178 -353 -551 -197
-851 53 -103 165 -213 263 -260 166 -79 347 -76 510 9 175 91 283 259 312 481
53 412 -269 764 -652 713z m205 -176 c117 -39 218 -139 266 -262 31 -79 38
-245 14 -328 -57 -197 -194 -319 -374 -331 -227 -16 -408 125 -457 356 -37
174 9 342 126 461 114 117 274 156 425 104z"/>
<path d="M4101 5054 c-175 -88 -176 -415 -2 -503 96 -49 190 -34 266 43 71 71
98 171 75 279 -34 167 -195 253 -339 181z"/>
<path d="M4703 3965 c-75 -53 0 -170 145 -225 71 -27 208 -50 296 -50 201 1
426 113 426 213 0 41 -8 53 -43 66 -33 13 -58 3 -155 -58 -35 -22 -86 -44
-113 -50 -106 -23 -292 -5 -372 35 -18 9 -51 32 -74 50 -45 37 -77 42 -110 19z"/>
</g>
</svg>
